<svg xmlns="http://www.w3.org/2000/svg" width="500" height="500" viewBox="0 0 200 200">
  <g fill="none" fill-rule="nonzero">
    <path fill="#007DB6" d="M21.57 87.973c-1.311-1.302-2.728-1.25-3.742-.908l.62 1.714a1.801 1.801 0 0 1 1.93.394c.82.816.77 2.083-.085 2.944-.854.861-2.121.92-2.943.105a1.801 1.801 0 0 1-.408-1.927l-1.718-.608c-.342 1.04-.377 2.434.934 3.735 1.58 1.569 3.902 1.694 5.518.068 1.607-1.62 1.473-3.949-.106-5.517ZM15.128 80.276l-1.309.944 2.064 2.862-1.083.782-2.019-2.8-1.318.951 2.019 2.8-1.002.721-2.064-2.862-1.31.944 3.184 4.415 6.022-4.343zM11.992 74.397l-1.48.772 1.379 2.645-5.102 2.661.885 1.697 6.583-3.433zM9.65 68.046l-1.523.534 1.168 3.33-1.261.442-1.142-3.256-1.533.537L6.5 72.89l-1.165.409-1.168-3.33-1.523.534 1.801 5.136 7.006-2.457zM8.479 62.08c-.25-1.436-1.294-1.99-2.358-1.805-.921.16-1.56.903-1.546 1.703-.273-.665-.984-1.117-1.894-.96-.922.16-1.745 1.015-1.494 2.462l.719 4.146 7.314-1.269-.741-4.277Zm-5.332 3.387-.318-1.831c-.066-.384.151-.693.513-.755.362-.063.682.152.749.536l.317 1.832-1.261.218Zm2.818-.488-.329-1.898c-.08-.46.193-.778.566-.843.395-.069.716.158.794.608l.33 1.897-1.36.236ZM8 52.202l-2.727 1.514c-.245-.69-.935-1.48-2.226-1.48-1.38 0-2.47.935-2.47 2.582v3.717H8v-1.914H5.485v-.98L8 54.395v-2.193Zm-4.975 1.981c.512 0 .835.423.835.924v1.514H2.19v-1.514c0-.5.323-.924.835-.924ZM9.39 43.527l-7.793 1.495-.41 2.368 6.836 4.021.356-2.05-1.043-.565.527-3.038 1.172-.18.356-2.051Zm-3.203 2.449-.356 2.05-2.795-1.535 3.151-.515ZM10.82 40.098l-5.45-1.847.665-1.96-1.581-.537L2.506 41.5l1.582.537.668-1.971 5.45 1.847zM12.916 35.158l-6.707-3.184-.82 1.729 6.706 3.184zM17.47 27.722l-6.22-4.052-1.052 1.614 3.582 2.333-5.221.186-1.076 1.65 6.222 4.052 1.044-1.604-3.76-2.448 5.473-.183zM15.637 24.142c1.714 1.621 4.029 1.328 5.55-.281.964-1.019 1.293-2.193 1.205-3.38l-2.11-1.996-2.463 2.604 1.156 1.094 1.17-1.237.453.428c-.028.386-.242.904-.64 1.325-.833.881-2.102.862-2.983.028-.881-.834-.972-2.099-.138-2.98a1.845 1.845 0 0 1 1.717-.536l.486-1.746c-1.046-.238-2.316-.061-3.433 1.12-1.521 1.609-1.685 3.936.03 5.557ZM38.071 14.687l-1.465-2.75-3.704 1.973c1.923-3.132 2.111-4.737 1.353-6.16-1.115-2.094-3.681-2.654-6.385-1.213-1.454.774-2.946 2.192-3.467 4.114l2.835 1.179c.44-1.097 1.067-1.953 2.114-2.51.735-.392 1.433-.363 1.7.137.416.782.17 1.414-2.806 7.314l1.307 2.454 8.518-4.538ZM37.804 8.542c.74 3.12 3.08 5.55 6.51 4.737 3.43-.813 4.431-4.035 3.692-7.154-.74-3.12-3.077-5.532-6.506-4.72-3.43.813-4.435 4.018-3.696 7.137Zm6.704-1.588c.461 1.947.182 2.996-.921 3.257-1.103.262-1.823-.55-2.285-2.498-.461-1.947-.178-2.979.925-3.24 1.103-.262 1.82.533 2.28 2.48ZM58.227 9.805l.18-2.988 3.068-4.253-2.166-.13-1.754 2.636-1.446-2.83-2.155-.131L56.497 6.7l-.181 2.988zM67.398 11.333l.342-1.578-3.45-.746.283-1.306 3.373.73.344-1.588-3.373-.73.261-1.207 3.45.746.34-1.578-5.32-1.15-1.57 7.255zM75.773 14.519l.164-7.934-2.231-.896-5.359 5.848 1.932.775.77-.902 2.86 1.15-.067 1.183 1.931.776Zm-1.727-3.644-1.931-.776 2.084-2.413-.153 3.189ZM82.066 18.203l.146-3.115c.716.154 1.75-.017 2.43-1.115.726-1.174.504-2.593-.897-3.46l-3.162-1.955-3.904 6.315 1.628 1.006 1.323-2.139.833.515-.262 2.795 1.865 1.153Zm.93-5.273c-.268.435-.798.487-1.224.224l-1.287-.796.878-1.42 1.287.796c.426.263.616.76.347 1.196ZM83.506 17.884c.1 1.027.586 2.064 1.724 3.046 1.508 1.301 2.99 1.27 3.964.142 1.098-1.273.05-2.648-.71-3.641-.522-.656-.78-1.055-.526-1.35.21-.245.564-.279 1.044.136.497.429.945 1.153 1.082 1.948l1.687-.353c-.155-1.03-.706-1.976-1.608-2.754-1.44-1.243-2.946-1.117-3.76-.173-1.15 1.332-.055 2.687.712 3.673.489.642.742 1.081.466 1.401-.233.27-.718.219-1.215-.21a3.354 3.354 0 0 1-1.155-2.29l-1.705.425Z"/>
    <path fill="#E8E857" d="M66.62 30.243c-1.13-3.33-2.45-5.92-5.13-7.68-4.56-3.42-11.94-3-18.47-1a34.25 34.25 0 0 0-23.17 24.6c4.75-10.68 15.31-17.92 26.22-17.98 13.93-.09 18.06 15.26 18.06 15.26 2.91-4.76 3.64-9.83 2.49-13.2Z"/>
    <path fill="#A2B427" d="M39.47 80.173a45.39 45.39 0 0 0 5.87-.39c.54-1.09 1.62-3.27 2.7-5.09.41-.7.87-1.41 1.3-2a16 16 0 0 1 .44-3.28c-.87-1.51-1.94-3.34-2.46-4.17-.7-1.22-2.45-4.33-3.29-5.83-1.5 0-4.37 0-5.55-.07-1.18-.07-4.13-.24-5.4-.33a49 49 0 0 0-3.34 4.83c-1.33 2.25-2.7 5-3.24 6.08a55.45 55.45 0 0 0 2.55 5.19 50.42 50.42 0 0 0 3.22 4.7c1.38.05 4.87.3 7.2.36ZM49.97 48.533c-.41 1.11-1.28 3.41-1.85 4.78-.76 1.8-1.87 4-2.45 5.07l3.31 5.86 1.54 2.63a45.62 45.62 0 0 1 5-9.34 33.68 33.68 0 0 0 2.37-5.23 12.39 12.39 0 0 0 .61-3.86l-2 .08c-1.54.05-4.93.03-6.53.01ZM24.91 68.813c.58-1.15 1.92-3.8 3.2-6a49.32 49.32 0 0 1 3.49-5 50 50 0 0 1-1.84-5.33c-.41-1.58-.73-3.44-.9-4.5-1.31-.1-3.56-.26-4.5-.28h-2.1c-2.38 4.5-3.48 11.79-1.31 19 .2.69.43 1.37.66 2 1.33.12 2.58.12 3.3.11ZM49.54 46.633h6.8l2-.08c-.77-6.28-5.6-13.09-16.48-12.11-.16.78-.4 1.92-.58 2.82-.18.9-.41 2.33-.53 3.22 1 .58 2.87 1.67 4.27 2.67 1.4 1 3.52 2.67 4.52 3.48ZM24.41 45.773c1.14 0 4 .23 5.13.32a51.1 51.1 0 0 1 4.63-3.22c1.25-.74 3.51-1.85 4.68-2.42.12-.95.34-2.43.58-3.59.14-.67.3-1.47.44-2.16l-.94.16a23.45 23.45 0 0 0-15.61 10.9l1.09.01ZM55.73 86.073c-1 .48-2 .84-2.62 1.06a13.62 13.62 0 0 1-2 3.21c-.4.51-.8 1-1.17 1.39A45.17 45.17 0 0 0 69 89.993s-7.42.64-13.27-3.92ZM49.66 89.173a13.69 13.69 0 0 0 1.49-2.31l-.11-.07-.34-.11h.11a24.18 24.18 0 0 1-2.41-1.82 23.29 23.29 0 0 1-2.9-3.15 48.34 48.34 0 0 1-6.07.39c-2.27-.06-5.54-.29-7.13-.41-.3.37-.74.91-1.19 1.44a33.39 33.39 0 0 0 14.33 7.72c.743.22 1.498.4 2.26.54a21.16 21.16 0 0 0 1.96-2.22Z"/>
    <path fill="#007DB6" d="m81.94 62.953-18.9-8.66a64.29 64.29 0 0 0-6.54 11.35c6-1.35 16.59-2.81 23.51 1.3a27.31 27.31 0 0 0 1.93-3.99Z"/>
    <path fill="#007DB6" d="M73.21 74.243a21.76 21.76 0 0 0 6-6c-6.78-4-17.73-2.17-23.32-.85a15.2 15.2 0 0 0 .1 10.51c3.33.39 10.81.6 17.22-3.66ZM83.95 55.663v-.27c-5.26-2.25-10.35-9.37-13.35-14.22-1.46 3.93-4 7.87-6.71 11.82l18.55 8.5a40 40 0 0 0 1.51-5.83ZM87.8 56.073a4.73 4.73 0 0 1-.65 0 7.35 7.35 0 0 1-1.67-.21 42.43 42.43 0 0 1-1.59 6.24l7.6 3.48a34.69 34.69 0 0 0 1.56-12.87 7.58 7.58 0 0 1-5.25 3.36ZM83.32 63.603a31.45 31.45 0 0 1-2 4.2l.21.15a13.08 13.08 0 0 1 4.73 8 27.27 27.27 0 0 0 2.66-3.95 42 42 0 0 0 2.08-4.9l-7.68-3.5ZM85.61 54.343a5.53 5.53 0 0 0 2 .19c1.94-.2 3.65-1.59 5.13-4.13-1-6.68-4.45-13.74-11.91-20.33-.67-.62-1.35-1.2-2-1.75 6.99 9.71 7.02 21.79 6.78 26.02Z"/>
    <path fill="#007DB6" d="m80.56 69.173-.08-.06a23.06 23.06 0 0 1-6.43 6.44 26.46 26.46 0 0 1-14.63 4.12c-1 0-1.92-.05-2.7-.11 3.4 6.5 9.76 8.09 15.75 6.47 5.18-1.4 9.51-5.16 12.47-8.51a12.05 12.05 0 0 0-4.38-8.35ZM71.37 38.813c0 .13-.07.26-.11.39a74.74 74.74 0 0 0 4.25 6.39c3.1 4.15 6 6.9 8.58 8.16.24-5.35-.17-20.73-11.7-30a49.21 49.21 0 0 0-7.55-3.84s9.76 5.79 6.53 18.9Z"/>
  </g>
</svg>
